/* XPM */
static char *_f726aef921048fddcda4664bd2d2130[] = {
/* columns rows colors chars-per-pixel */
"32 32 25 1 ",
"  c None",
". c #0C1621",
"X c #0D1621",
"o c #0F1621",
"O c #101621",
"+ c #111621",
"@ c #141621",
"# c #151621",
"$ c #1F1521",
"% c #291421",
"& c #7A0F22",
"* c #7D0F22",
"= c #731022",
"- c #990D22",
"; c #9A0D22",
": c #A10C22",
"> c #A00D22",
", c #A20C22",
"< c #A50C22",
"1 c #A60C22",
"2 c #A70C22",
"3 c #A80C22",
"4 c #A90C22",
"5 c #AA0C22",
"6 c #AB0C22",
/* pixels */
"            ++++++++            ",
"         ++++      ++++         ",
"       +++            +++       ",
"      ++                ++      ",
"     ++                  ++     ",
"    ++                    ++    ",
"   ++       +++++++++      ++   ",
"  ++       ++++++++++++     ++  ",
"  +         ++++++++++++     +  ",
" ++           +++++++++++    ++ ",
" +              +++++++++     + ",
" +              +++++++++     + ",
"++               ###++o++     ++",
"+             332::;;=$++      +",
"+           33633333362%+      +",
"+           3    333333;       +",
"#          33 oo*3333333       +",
"+          33 oo*33333333      +",
"+           3   333333333      +",
"++          3366333333333     ++",
" +              333333333     + ",
" +              333333333     + ",
" ++            333333333     ++ ",
"  +     3333333333333333     +  ",
"  ++    333333333333333     ++  ",
"   ++  33333333333333      ++   ",
"    ++                    ++    ",
"     ++                  ++     ",
"      ++                ++      ",
"       +++            +++       ",
"         ++++      ++++         ",
"            ++++++++            "
};
