/* XPM */
static char *abce6ec95a7e48f7f8237f8abb9d0087[] = {
/* columns rows colors chars-per-pixel */
"128 128 4 1 ",
"  c None",
". c #111621",
"X c #A80C22",
"o c #A90C22",
/* pixels */
"                                                        ................                                                        ",
"                                                  ............................                                                  ",
"                                              ....................................                                              ",
"                                           ..........................................                                           ",
"                                        ................................................                                        ",
"                                      ..................                ..................                                      ",
"                                    ..............                            ..............                                    ",
"                                  .............                                  .............                                  ",
"                                ............                                        ............                                ",
"                              ...........                                              ...........                              ",
"                             ..........                                                  ..........                             ",
"                           ..........                                                      ..........                           ",
"                          .........                                                          .........                          ",
"                         ........                                                              ........                         ",
"                       .........                                                                .........                       ",
"                      ........                                                                    ........                      ",
"                     ........                                                                      ........                     ",
"                    ........                                                                        ........                    ",
"                   .......                                                                            .......                   ",
"                  .......                                                                              .......                  ",
"                 .......                                                                                .......                 ",
"                .......                                                                                  .......                ",
"               .......                                                                                    .......               ",
"              .......                                                                                      .......              ",
"              ......                                                                                        ......              ",
"             ......                    ..  .. ...................................                            ......             ",
"            ......                      .. ... ......................................                         ......            ",
"           .......                       .. ..  ........................................                      .......           ",
"           ......                        ... .. ..........................................                     ......           ",
"          ......                          ... .. ..........................................                     ......          ",
"         ......                            .. ... ...........................................                    ......         ",
"         ......                             .. ... ...........................................                   ......         ",
"        ......                               .. ..  ...........................................                   ......        ",
"        .....                                ... .. ...........................................                    .....        ",
"       ......                                 ... .. ...........................................                   ......       ",
"       .....                                   .. ... ...........................................                   .....       ",
"      ......                                    .. ... ..........................................                   ......      ",
"      .....                                      .  ..  ..........................................                   .....      ",
"     ......                                              .........................................                   ......     ",
"     .....                                                  .......................................                   .....     ",
"    ......                                                    .....................................                   ......    ",
"    .....                                                      ....................................                    .....    ",
"    .....                                                       ....................................                   .....    ",
"   ......                                                       ....................................                   ......   ",
"   .....                                                         ...................................                    .....   ",
"   .....                                                         ...................................                    .....   ",
"  ......                                                          ..................................                    ......  ",
"  .....                                                           ..................................                     .....  ",
"  .....                                                           ..................................                     .....  ",
"  .....                                                           ..................................                     .....  ",
" .....                                                            ..................................                      ..... ",
" .....                                                                            ..................                      ..... ",
" .....                                                                                ..............                      ..... ",
" .....                                                  XXXXXXXXXXXXXXXXXXXXXXXXXX       ...........                      ..... ",
" .....                                               XXXXXXXXXXXXXXXXXXXXXXXXXXXXXXXXX    ..........                      ..... ",
"......                                             XXXXXXXXXXXXXXXXXXXXXXXXXXXXXXXXXXXXX    ........                      ......",
".....                                             XXXXXXXXXXXXXXXXXXXXXXXXXXXXXXXXXXXXXXX    .......                       .....",
".....                                            XXXXXXXXXXXXXXXXXXXXXXXXXXXXXXXXXXXXXXXXXX   .....                        .....",
".....                                           XXXXXXXXXXXXXXXXXXXXXXXXXXXXXXXXXXXXXXXXXXXX   ....                        .....",
".....                                          XXXXXXXXXXXXXXXXXXXXXXXXXXXXXXXXXXXXXXXXXXXXXX  ....                        .....",
".....                                          XXXXXXXX           XXXXXXXXXXXXXXXXXXXXXXXXXXX   ..                         .....",
".....                                         XXXXXXX             XXXXXXXXXXXXXXXXXXXXXXXXXXXX   .                         .....",
".....                                         XXXXXX     ....     XXXXXXXXXXXXXXXXXXXXXXXXXXXXX                            .....",
".....                                         XXXXXX    .......   XXXXXXXXXXXXXXXXXXXXXXXXXXXXXX                           .....",
".....                                         XXXXX    .........  XXXXXXXXXXXXXXXXXXXXXXXXXXXXXX                           .....",
".....                                        XXXXXX   ..........  XXXXXXXXXXXXXXXXXXXXXXXXXXXXXXX                          .....",
".....                                        XXXXXX   ........... XXXXXXXXXXXXXXXXXXXXXXXXXXXXXXX                          .....",
".....                                        XXXXXX   ........... XXXXXXXXXXXXXXXXXXXXXXXXXXXXXXXX                         .....",
".....                                        XXXXXX   ........... XXXXXXXXXXXXXXXXXXXXXXXXXXXXXXXX                         .....",
".....                                        XXXXXX   ........... XXXXXXXXXXXXXXXXXXXXXXXXXXXXXXXX                         .....",
".....                                         XXXXX   ..........  XXXXXXXXXXXXXXXXXXXXXXXXXXXXXXXXX                        .....",
".....                                         XXXXX    ........   XXXXXXXXXXXXXXXXXXXXXXXXXXXXXXXXX                        .....",
"......                                        XXXXXX    ......    XXXXXXXXXXXXXXXXXXXXXXXXXXXXXXXXX                       ......",
" .....                                        XXXXXXX             XXXXXXXXXXXXXXXXXXXXXXXXXXXXXXXXXX                      ..... ",
" .....                                         XXXXXXX            XXXXXXXXXXXXXXXXXXXXXXXXXXXXXXXXXX                      ..... ",
" .....                                         XXXXXXXXX          XXXXXXXXXXXXXXXXXXXXXXXXXXXXXXXXXX                      ..... ",
" .....                                          XXXXXXXXXXXXXXXXXXXXXXXXXXXXXXXXXXXXXXXXXXXXXXXXXXXX                      ..... ",
" .....                                           XXXXXXXXXXXXXXXXXXXXXXXXXXXXXXXXXXXXXXXXXXXXXXXXXXX                      ..... ",
"  .....                                           XXXXXXXXXXXXXXXXXXXXXXXXXXXXXXXXXXXXXXXXXXXXXXXXXX                     .....  ",
"  .....                                            XXXXXXXXXXXXXXXXXXXXXXXXXXXXXXXXXXXXXXXXXXXXXXXXX                     .....  ",
"  .....                                             XXXXXXXXXXXXXXXXXXXXXXXXXXXXXXXXXXXXXXXXXXXXXXXX                     .....  ",
"  ......                                               XXXXXXXXXXXXXXXXXXXXXXXXXXXXXXXXXXXXXXXXXXXXX                    ......  ",
"   .....                                                          XXXXXXXXXXXXXXXXXXXXXXXXXXXXXXXXXX                    .....   ",
"   .....                                                          XXXXXXXXXXXXXXXXXXXXXXXXXXXXXXXXXX                    .....   ",
"   ......                                                        XXXXXXXXXXXXXXXXXXXXXXXXXXXXXXXXXX                    ......   ",
"    .....                                                        XXXXXXXXXXXXXXXXXXXXXXXXXXXXXXXXXX                    .....    ",
"    .....                                                       XXXXXXXXXXXXXXXXXXXXXXXXXXXXXXXXXXX                    .....    ",
"    ......                                                     XXXXXXXXXXXXXXXXXXXXXXXXXXXXXXXXXXX                    ......    ",
"     .....                                                    XXXXXXXXXXXXXXXXXXXXXXXXXXXXXXXXXXXX                    .....     ",
"     ......                                                  XXXXXXXXXXXXXXXXXXXXXXXXXXXXXXXXXXXXX                   ......     ",
"      .....                                               XXXXXXXXXXXXXXXXXXXXXXXXXXXXXXXXXXXXXXX                    .....      ",
"      ......                        XXXXXXXXXXXXXXXXXXXXXXXXXXXXXXXXXXXXXXXXXXXXXXXXXXXXXXXXXXXXX                   ......      ",
"       .....                       XXXXXXXXXXXXXXXXXXXXXXXXXXXXXXXXXXXXXXXXXXXXXXXXXXXXXXXXXXXXX                    .....       ",
"       ......                     XXXXXXXXXXXXXXXXXXXXXXXXXXXXXXXXXXXXXXXXXXXXXXXXXXXXXXXXXXXXXX                   ......       ",
"        .....                    XXXXXXXXXXXXXXXXXXXXXXXXXXXXXXXXXXXXXXXXXXXXXXXXXXXXXXXXXXXXXX                    .....        ",
"        ......                   XXXXXXXXXXXXXXXXXXXXXXXXXXXXXXXXXXXXXXXXXXXXXXXXXXXXXXXXXXXXX                    ......        ",
"         ......                 XXXXXXXXXXXXXXXXXXXXXXXXXXXXXXXXXXXXXXXXXXXXXXXXXXXXXXXXXXXXX                    ......         ",
"         ......                XXXXXXXXXXXXXXXXXXXXXXXXXXXXXXXXXXXXXXXXXXXXXXXXXXXXXXXXXXXXX                     ......         ",
"          ......              XXXXXXXXXXXXXXXXXXXXXXXXXXXXXXXXXXXXXXXXXXXXXXXXXXXXXXXXXXXXX                     ......          ",
"           ......            XXXXXXXXXXXXXXXXXXXXXXXXXXXXXXXXXXXXXXXXXXXXXXXXXXXXXXXXXXXXX                     ......           ",
"           .......          XXXXXXXXXXXXXXXXXXXXXXXXXXXXXXXXXXXXXXXXXXXXXXXXXXXXXXXXXXXX                      .......           ",
"            ......          XXXXXXXXXXXXXXXXXXXXXXXXXXXXXXXXXXXXXXXXXXXXXXXXXXXXXXXXX                         ......            ",
"             ......        XXXXXXXXXXXXXXXXXXXXXXXXXXXXXXXXXXXXXXXXXXXXXXXXXXXXX                             ......             ",
"              ......                                                                                        ......              ",
"              .......                                                                                      .......              ",
"               .......                                                                                    .......               ",
"                .......                                                                                  .......                ",
"                 .......                                                                                .......                 ",
"                  .......                                                                              .......                  ",
"                   .......                                                                            .......                   ",
"                    ........                                                                        ........                    ",
"                     ........                                                                      ........                     ",
"                      ........                                                                    ........                      ",
"                       .........                                                                .........                       ",
"                         ........                                                              ........                         ",
"                          .........                                                          .........                          ",
"                           ..........                                                      ..........                           ",
"                             ..........                                                  ..........                             ",
"                              ...........                                              ...........                              ",
"                                ............                                        ............                                ",
"                                  .............                                  .............                                  ",
"                                    ..............                            ..............                                    ",
"                                      ..................                ..................                                      ",
"                                        ................................................                                        ",
"                                           ..........................................                                           ",
"                                              ....................................                                              ",
"                                                  ............................                                                  ",
"                                                        ................                                                        "
};
