/* XPM */
static char *_444ec6a54e547d5fa3710b54dc0f83b[] = {
/* columns rows colors chars-per-pixel */
"16 16 22 1 ",
"  c None",
". c #0C1621",
"X c #0E1621",
"o c #0F1621",
"O c #101621",
"+ c #111621",
"@ c #181621",
"# c #461221",
"$ c #591121",
"% c #7F0F22",
"& c #6A1022",
"* c #711022",
"= c #800F22",
"- c #850E22",
"; c #910E22",
": c #9D0D22",
"> c #9E0D22",
", c #A50C22",
"< c #A60C22",
"1 c #A80C22",
"2 c #A90C22",
"3 c #AB0C22",
/* pixels */
"     ++++++     ",
"                ",
"  +          +  ",
"      +++++     ",
"      ++++++    ",
"+       ooo+   +",
"+       &$#@+  +",
"+     :%,33=   +",
"+     &o;33,   +",
"+     ,-,,,3   +",
"+       3,3,   +",
"     33,,3,3    ",
"    3,33,33     ",
"  +          +  ",
"                ",
"     ++++++     "
};
