/* XPM */
static char *c843859e67e146f7837ecdb542c826a5[] = {
/* columns rows colors chars-per-pixel */
"64 64 10 1 ",
"  c None",
". c #0D1621",
"X c #0E1621",
"o c #0F1621",
"O c #101621",
"+ c #111621",
"@ c #A80C22",
"# c #A90C22",
"$ c #AA0C22",
"% c #AB0C22",
/* pixels */
"                          ++++++++++++                          ",
"                      ++++++++++++++++++++                      ",
"                    ++++++++++++++++++++++++                    ",
"                 +++++++                +++++++                 ",
"                +++++                      +++++                ",
"              +++++                          +++++              ",
"             ++++                              ++++             ",
"           +++++                                +++++           ",
"          ++++                                    ++++          ",
"         ++++                                      ++++         ",
"        ++++                                        ++++        ",
"       ++++                                          ++++       ",
"       +++                                            +++       ",
"      +++           +++++++++++++++++++++++            +++      ",
"     +++             ++++++++++++++++++++++++           +++     ",
"     +++              +++++++++++++++++++++++++         +++     ",
"    +++                +++++++++++++++++++++++++         +++    ",
"   +++                 +++++++++++++++++++++++++          +++   ",
"   +++                  + +++++++++++++++++++++++         +++   ",
"   ++                        ++++++++++++++++++++          ++   ",
"  +++                          +++++++++++++++++++         +++  ",
"  ++                            ++++++++++++++++++          ++  ",
" +++                             +++++++++++++++++          +++ ",
" +++                             +++++++++++++++++          +++ ",
" ++                              +o++o++++++++++++           ++ ",
" ++                               ooo..oo+o+++++++           ++ ",
"+++                                         ++++++           +++",
"+++                       @@@@@@@@@@@@@@@@%   ++++           +++",
"+++                      @@@@@@@@@@@@@@@@@@@@  +++           +++",
"+++                     @@@@@@@@@@@@@@@@@@@@@@  +            +++",
"+++                    @@@@      @@@@@@@@@@@@@@ o            +++",
"+++                    @@@  +o+  @@@@@@@@@@@@@@@             +++",
"+++                    @@@ +++++ @@@@@@@@@@@@@@@             +++",
"+++                    @@  +++++ %@@@@@@@@@@@@@@@            +++",
"+++                    @@  +++++ %@@@@@@@@@@@@@@@            +++",
"+++                    @@@ +++++ @@@@@@@@@@@@@@@@            +++",
"+++                    @@@   +o  @@@@@@@@@@@@@@@@@           +++",
"+++                     @@@      @@@@@@@@@@@@@@@@@           +++",
" ++                     @@@@@@@@@@@@@@@@@@@@@@@@@@           ++ ",
" ++                      @@@@@@@@@@@@@@@@@@@@@@@@@           ++ ",
" +++                       @@@@@@@@@@@@@@@@@@@@@@@          +++ ",
" +++                             @@@@@@@@@@@@@@@@@          +++ ",
"  ++                             @@@@@@@@@@@@@@@@@          ++  ",
"  +++                           @@@@@@@@@@@@@@@@@          +++  ",
"   ++                          @@@@@@@@@@@@@@@@@@          ++   ",
"   +++            @@@@@@@@@@@@@@@@@@@@@@@@@@@@@@@         +++   ",
"   +++           @@@@@@@@@@@@@@@@@@@@@@@@@@@@@@@          +++   ",
"    +++          @@@@@@@@@@@@@@@@@@@@@@@@@@@@@@          +++    ",
"     +++        @@@@@@@@@@@@@@@@@@@@@@@@@@@@@@          +++     ",
"     +++       @@@@@@@@@@@@@@@@@@@@@@@@@@@@@@           +++     ",
"      +++     @@@@@@@@@@@@@@@@@@@@@@@@@@@@@            +++      ",
"       +++               @@@@                         +++       ",
"       ++++                                          ++++       ",
"        ++++                                        ++++        ",
"         ++++                                      ++++         ",
"          ++++                                    ++++          ",
"           +++++                                +++++           ",
"             ++++                              ++++             ",
"              +++++                          +++++              ",
"                +++++                      +++++                ",
"                 +++++++                +++++++                 ",
"                    ++++++++++++++++++++++++                    ",
"                      ++++++++++++++++++++                      ",
"                          ++++++++++++                          "
};
